<svg xmlns="http://www.w3.org/2000/svg" version="1.1" xmlns:xlink="http://www.w3.org/1999/xlink" xmlns:svgjs="http://svgjs.dev/svgjs" viewBox="0 0 35.8813027903777 12.349624830060192"><g transform="matrix(1,0,0,1,18.634282629100934,3.4860061650300964)"><g><path d=" M 2.5515000000000003 2.4299999999999993 L 2.5515000000000003 3.1949999999999994 L 0.2745 3.1949999999999994 L 0.2745 -8.881784197001252e-16 L 2.511 -8.881784197001252e-16 L 2.511 0.7649999999999992 L 1.1520000000000001 0.7649999999999992 L 1.1520000000000001 1.2149999999999992 L 2.313 1.2149999999999992 L 2.313 1.9259999999999993 L 1.1520000000000001 1.9259999999999993 L 1.1520000000000001 2.4299999999999993 L 2.5515000000000003 2.4299999999999993 M 3.572931884765625 -8.881784197001252e-16 L 4.1984318847656255 2.182499999999999 L 4.814931884765626 -8.881784197001252e-16 L 5.737431884765625 -8.881784197001252e-16 L 4.634931884765625 3.1949999999999994 L 3.761931884765625 3.1949999999999994 L 2.645931884765625 -8.881784197001252e-16 L 3.572931884765625 -8.881784197001252e-16 M 8.252918701171875 2.4299999999999993 L 8.252918701171875 3.1949999999999994 L 5.975918701171874 3.1949999999999994 L 5.975918701171874 -8.881784197001252e-16 L 8.212418701171874 -8.881784197001252e-16 L 8.212418701171874 0.7649999999999992 L 6.853418701171875 0.7649999999999992 L 6.853418701171875 1.2149999999999992 L 8.014418701171875 1.2149999999999992 L 8.014418701171875 1.9259999999999993 L 6.853418701171875 1.9259999999999993 L 6.853418701171875 2.4299999999999993 L 8.252918701171875 2.4299999999999993 M 8.6578505859375 3.1949999999999994 L 8.6578505859375 -8.881784197001252e-16 L 9.8863505859375 -8.881784197001252e-16 Q 10.4173505859375 -8.881784197001252e-16 10.7751005859375 0.21374999999999922 Q 11.1328505859375 0.4274999999999989 11.3151005859375 0.7897499999999993 Q 11.4973505859375 1.1519999999999992 11.4973505859375 1.5929999999999993 Q 11.4973505859375 2.0789999999999993 11.2971005859375 2.438999999999999 Q 11.0968505859375 2.7989999999999995 10.7346005859375 2.9969999999999994 Q 10.3723505859375 3.1949999999999994 9.8863505859375 3.1949999999999994 L 8.6578505859375 3.1949999999999994 M 10.6063505859375 1.5929999999999993 Q 10.6063505859375 1.3454999999999993 10.520850585937499 1.158749999999999 Q 10.435350585937499 0.9719999999999991 10.2733505859375 0.8684999999999992 Q 10.1113505859375 0.7649999999999992 9.8863505859375 0.7649999999999992 L 9.5353505859375 0.7649999999999992 L 9.5353505859375 2.4299999999999993 L 9.8863505859375 2.4299999999999993 Q 10.1158505859375 2.4299999999999993 10.2756005859375 2.321999999999999 Q 10.435350585937499 2.2139999999999995 10.520850585937499 2.0227499999999994 Q 10.6063505859375 1.8314999999999992 10.6063505859375 1.5929999999999993 M 14.593365966796874 2.3759999999999994 Q 14.593365966796874 2.6639999999999993 14.438115966796875 2.8439999999999994 Q 14.282865966796875 3.0239999999999996 14.021865966796874 3.1094999999999993 Q 13.760865966796874 3.1949999999999994 13.445865966796875 3.1949999999999994 L 11.875365966796874 3.1949999999999994 L 11.875365966796874 -8.881784197001252e-16 L 13.729365966796875 -8.881784197001252e-16 Q 13.954365966796875 -8.881784197001252e-16 14.118615966796874 0.11924999999999919 Q 14.282865966796875 0.23849999999999927 14.370615966796874 0.4274999999999989 Q 14.458365966796874 0.6164999999999989 14.458365966796874 0.8189999999999991 Q 14.458365966796874 1.039499999999999 14.343615966796875 1.2464999999999993 Q 14.228865966796874 1.4534999999999991 13.999365966796875 1.5569999999999993 Q 14.273865966796874 1.6379999999999992 14.433615966796875 1.8404999999999991 Q 14.593365966796874 2.0429999999999993 14.593365966796874 2.3759999999999994 M 13.702365966796874 2.1959999999999993 Q 13.702365966796874 2.1149999999999993 13.673115966796875 2.0542499999999992 Q 13.643865966796874 1.9934999999999992 13.594365966796875 1.9574999999999994 Q 13.544865966796875 1.9214999999999993 13.477365966796874 1.9214999999999993 L 12.752865966796875 1.9214999999999993 L 12.752865966796875 2.4569999999999994 L 13.445865966796875 2.4569999999999994 Q 13.517865966796874 2.4569999999999994 13.576365966796875 2.4254999999999995 Q 13.634865966796875 2.3939999999999992 13.668615966796875 2.3354999999999992 Q 13.702365966796874 2.2769999999999992 13.702365966796874 2.1959999999999993 M 12.752865966796875 0.746999999999999 L 12.752865966796875 1.2374999999999992 L 13.351365966796875 1.2374999999999992 Q 13.409865966796875 1.2374999999999992 13.463865966796874 1.217249999999999 Q 13.517865966796874 1.1969999999999992 13.553865966796874 1.1429999999999993 Q 13.589865966796875 1.088999999999999 13.589865966796875 0.9899999999999993 Q 13.589865966796875 0.899999999999999 13.560615966796874 0.8482499999999993 Q 13.531365966796875 0.7964999999999991 13.484115966796875 0.771749999999999 Q 13.436865966796875 0.746999999999999 13.378365966796874 0.746999999999999 L 12.752865966796875 0.746999999999999" fill="#002540" fill-rule="nonzero"></path></g><g><path d=" M 1.4017500000000003 4.965862499999998 Q 1.4017500000000003 5.055862499999999 1.3657500000000002 5.131237499999998 Q 1.3297500000000002 5.2066124999999985 1.2690000000000001 5.261737499999999 Q 1.20825 5.316862499999999 1.12725 5.3472374999999985 Q 1.0462500000000001 5.377612499999999 0.9540000000000001 5.377612499999999 L 0.20025 5.377612499999999 L 0.20025 3.7801124999999987 L 0.9697500000000001 3.7801124999999987 Q 1.0530000000000002 3.7801124999999987 1.1205 3.8161124999999987 Q 1.1880000000000002 3.8521124999999987 1.2352500000000002 3.9094874999999987 Q 1.2825000000000002 3.9668624999999986 1.308375 4.039987499999999 Q 1.3342500000000002 4.113112499999999 1.3342500000000002 4.187362499999999 Q 1.3342500000000002 4.308862499999998 1.2735 4.4089874999999985 Q 1.2127500000000002 4.509112499999999 1.1047500000000001 4.558612499999999 Q 1.2420000000000002 4.599112499999999 1.3218750000000001 4.709362499999998 Q 1.4017500000000003 4.819612499999999 1.4017500000000003 4.965862499999998 M 1.24425 4.938862499999999 Q 1.24425 4.880362499999999 1.2240000000000002 4.825237499999998 Q 1.20375 4.770112499999999 1.1666250000000002 4.728487499999999 Q 1.1295000000000002 4.686862499999998 1.078875 4.660987499999999 Q 1.02825 4.635112499999999 0.9697500000000001 4.635112499999999 L 0.35775000000000007 4.635112499999999 L 0.35775000000000007 5.240362499999999 L 0.9540000000000001 5.240362499999999 Q 1.01475 5.240362499999999 1.067625 5.215612499999999 Q 1.1205 5.190862499999999 1.1598750000000002 5.149237499999999 Q 1.1992500000000001 5.107612499999998 1.2217500000000001 5.052487499999999 Q 1.24425 4.997362499999999 1.24425 4.938862499999999 M 0.35775000000000007 3.9173624999999985 L 0.35775000000000007 4.506862499999999 L 0.9067500000000001 4.506862499999999 Q 0.9652500000000002 4.506862499999999 1.015875 4.482112499999999 Q 1.0665000000000002 4.457362499999999 1.1025 4.416862499999999 Q 1.1385 4.376362499999999 1.1587500000000002 4.323487499999999 Q 1.179 4.270612499999999 1.179 4.212112499999998 Q 1.179 4.1513624999999985 1.1598750000000002 4.097362499999999 Q 1.1407500000000002 4.043362499999999 1.1058750000000002 4.003987499999999 Q 1.0710000000000002 3.9646124999999985 1.0237500000000002 3.9409874999999985 Q 0.9765000000000001 3.9173624999999985 0.9202500000000001 3.9173624999999985 L 0.35775000000000007 3.9173624999999985 M 2.76978515625 5.238112499999999 L 2.76978515625 5.377612499999999 L 1.69653515625 5.377612499999999 L 1.69653515625 3.7801124999999987 L 2.7495351562500003 3.7801124999999987 L 2.7495351562500003 3.9196124999999986 L 1.85403515625 3.9196124999999986 L 1.85403515625 4.495612499999998 L 2.63478515625 4.495612499999998 L 2.63478515625 4.628362499999999 L 1.85403515625 4.628362499999999 L 1.85403515625 5.238112499999999 L 2.76978515625 5.238112499999999 M 3.96452197265625 4.0793624999999984 Q 3.8970219726562503 4.002862499999999 3.78452197265625 3.9556124999999986 Q 3.6720219726562497 3.9083624999999986 3.52802197265625 3.9083624999999986 Q 3.31652197265625 3.9083624999999986 3.21977197265625 3.9882374999999985 Q 3.12302197265625 4.068112499999999 3.12302197265625 4.205362499999999 Q 3.12302197265625 4.277362499999999 3.14889697265625 4.323487499999999 Q 3.17477197265625 4.369612499999999 3.22877197265625 4.403362499999998 Q 3.28277197265625 4.437112499999999 3.3671469726562497 4.461862499999999 Q 3.45152197265625 4.486612499999999 3.56627197265625 4.511362499999999 Q 3.6945219726562497 4.538362499999999 3.79689697265625 4.5721124999999985 Q 3.89927197265625 4.605862499999999 3.97127197265625 4.656487499999999 Q 4.04327197265625 4.707112499999999 4.08152197265625 4.779112499999998 Q 4.11977197265625 4.851112499999998 4.11977197265625 4.959112499999999 Q 4.11977197265625 5.069362499999999 4.07702197265625 5.150362499999999 Q 4.03427197265625 5.231362499999999 3.95777197265625 5.285362499999999 Q 3.8812719726562497 5.339362499999999 3.77552197265625 5.365237499999999 Q 3.6697719726562497 5.391112499999998 3.5437719726562498 5.391112499999998 Q 3.17252197265625 5.391112499999998 2.90252197265625 5.1593624999999985 L 2.9812719726562498 5.031112499999999 Q 3.02402197265625 5.076112499999999 3.0836469726562497 5.116612499999999 Q 3.1432719726562497 5.157112499999998 3.21639697265625 5.187487499999999 Q 3.28952197265625 5.217862499999999 3.37277197265625 5.234737499999999 Q 3.45602197265625 5.2516124999999985 3.54827197265625 5.2516124999999985 Q 3.73952197265625 5.2516124999999985 3.84639697265625 5.1829874999999985 Q 3.9532719726562497 5.114362499999999 3.9532719726562497 4.974862499999999 Q 3.9532719726562497 4.9006124999999985 3.92289697265625 4.849987499999999 Q 3.89252197265625 4.799362499999999 3.83177197265625 4.762237499999999 Q 3.77102197265625 4.725112499999999 3.68102197265625 4.698112499999999 Q 3.59102197265625 4.671112499999999 3.47177197265625 4.6441124999999985 Q 3.34577197265625 4.614862499999999 3.25127197265625 4.583362499999999 Q 3.1567719726562498 4.551862499999999 3.09152197265625 4.504612499999999 Q 3.0262719726562497 4.457362499999999 2.99364697265625 4.390987499999999 Q 2.96102197265625 4.324612499999999 2.96102197265625 4.227862499999999 Q 2.96102197265625 4.117612499999998 3.0026469726562497 4.030987499999998 Q 3.04427197265625 3.9443624999999987 3.1207719726562497 3.8869874999999987 Q 3.19727197265625 3.8296124999999988 3.30077197265625 3.7992374999999985 Q 3.40427197265625 3.7688624999999987 3.5302719726562497 3.7688624999999987 Q 3.69002197265625 3.7688624999999987 3.81489697265625 3.8172374999999983 Q 3.93977197265625 3.8656124999999983 4.0410219726562495 3.9533624999999986 L 3.96452197265625 4.0793624999999984 M 5.516998901367187 3.9196124999999986 L 4.947748901367188 3.9196124999999986 L 4.947748901367188 5.377612499999999 L 4.790248901367187 5.377612499999999 L 4.790248901367187 3.9196124999999986 L 4.220998901367187 3.9196124999999986 L 4.220998901367187 3.7801124999999987 L 5.516998901367187 3.7801124999999987 L 5.516998901367187 3.9196124999999986 M 6.077243408203125 5.177362499999999 Q 6.126743408203125 5.211112499999999 6.204368408203124 5.235862499999999 Q 6.281993408203125 5.260612499999999 6.378743408203125 5.260612499999999 Q 6.500243408203125 5.260612499999999 6.573368408203125 5.216737499999999 Q 6.646493408203124 5.172862499999999 6.684743408203125 5.0873624999999985 Q 6.722993408203124 5.001862499999999 6.734243408203125 4.8769874999999985 Q 6.745493408203124 4.752112499999999 6.745493408203124 4.592362499999998 L 6.745493408203124 3.7801124999999987 L 6.902993408203125 3.7801124999999987 L 6.902993408203125 4.592362499999998 Q 6.902993408203125 4.774612499999999 6.886118408203124 4.9242374999999985 Q 6.869243408203125 5.073862499999999 6.815243408203124 5.179612499999998 Q 6.761243408203125 5.285362499999999 6.657743408203125 5.343862499999998 Q 6.554243408203124 5.402362499999999 6.378743408203125 5.402362499999999 Q 6.176243408203125 5.402362499999999 6.032243408203125 5.303362499999999 L 6.077243408203125 5.177362499999999 M 8.214784057617187 4.0793624999999984 Q 8.147284057617187 4.002862499999999 8.034784057617188 3.9556124999999986 Q 7.922284057617187 3.9083624999999986 7.778284057617187 3.9083624999999986 Q 7.566784057617187 3.9083624999999986 7.470034057617187 3.9882374999999985 Q 7.373284057617187 4.068112499999999 7.373284057617187 4.205362499999999 Q 7.373284057617187 4.277362499999999 7.399159057617187 4.323487499999999 Q 7.425034057617187 4.369612499999999 7.479034057617187 4.403362499999998 Q 7.533034057617187 4.437112499999999 7.617409057617187 4.461862499999999 Q 7.701784057617187 4.486612499999999 7.816534057617187 4.511362499999999 Q 7.944784057617187 4.538362499999999 8.047159057617186 4.5721124999999985 Q 8.149534057617187 4.605862499999999 8.221534057617188 4.656487499999999 Q 8.293534057617187 4.707112499999999 8.331784057617186 4.779112499999998 Q 8.370034057617188 4.851112499999998 8.370034057617188 4.959112499999999 Q 8.370034057617188 5.069362499999999 8.327284057617188 5.150362499999999 Q 8.284534057617186 5.231362499999999 8.208034057617187 5.285362499999999 Q 8.131534057617188 5.339362499999999 8.025784057617187 5.365237499999999 Q 7.920034057617187 5.391112499999998 7.794034057617187 5.391112499999998 Q 7.422784057617187 5.391112499999998 7.152784057617187 5.1593624999999985 L 7.231534057617187 5.031112499999999 Q 7.274284057617187 5.076112499999999 7.333909057617187 5.116612499999999 Q 7.393534057617187 5.157112499999998 7.466659057617187 5.187487499999999 Q 7.539784057617187 5.217862499999999 7.623034057617187 5.234737499999999 Q 7.706284057617187 5.2516124999999985 7.7985340576171875 5.2516124999999985 Q 7.989784057617187 5.2516124999999985 8.096659057617186 5.1829874999999985 Q 8.203534057617187 5.114362499999999 8.203534057617187 4.974862499999999 Q 8.203534057617187 4.9006124999999985 8.173159057617188 4.849987499999999 Q 8.142784057617186 4.799362499999999 8.082034057617188 4.762237499999999 Q 8.021284057617187 4.725112499999999 7.931284057617187 4.698112499999999 Q 7.841284057617187 4.671112499999999 7.722034057617187 4.6441124999999985 Q 7.596034057617187 4.614862499999999 7.501534057617187 4.583362499999999 Q 7.407034057617187 4.551862499999999 7.341784057617187 4.504612499999999 Q 7.276534057617187 4.457362499999999 7.243909057617187 4.390987499999999 Q 7.211284057617187 4.324612499999999 7.211284057617187 4.227862499999999 Q 7.211284057617187 4.117612499999998 7.252909057617187 4.030987499999998 Q 7.294534057617187 3.9443624999999987 7.371034057617187 3.8869874999999987 Q 7.447534057617187 3.8296124999999988 7.551034057617187 3.7992374999999985 Q 7.654534057617187 3.7688624999999987 7.780534057617187 3.7688624999999987 Q 7.940284057617188 3.7688624999999987 8.065159057617187 3.8172374999999983 Q 8.190034057617186 3.8656124999999983 8.291284057617187 3.9533624999999986 L 8.214784057617187 4.0793624999999984 M 9.28802197265625 5.388862499999999 Q 9.12152197265625 5.388862499999999 8.98314697265625 5.320237499999998 Q 8.844771972656249 5.2516124999999985 8.74577197265625 5.137987499999999 Q 8.64677197265625 5.024362499999999 8.59277197265625 4.8781124999999985 Q 8.53877197265625 4.731862499999998 8.53877197265625 4.578862499999999 Q 8.53877197265625 4.419112499999999 8.59614697265625 4.272862499999999 Q 8.65352197265625 4.1266124999999985 8.754771972656249 4.014112499999999 Q 8.856021972656249 3.901612499999999 8.993271972656249 3.8352374999999985 Q 9.130521972656249 3.7688624999999987 9.29027197265625 3.7688624999999987 Q 9.456771972656249 3.7688624999999987 9.595146972656249 3.8397374999999987 Q 9.73352197265625 3.9106124999999987 9.83139697265625 4.025362499999998 Q 9.929271972656249 4.140112499999999 9.983271972656249 4.285237499999999 Q 10.03727197265625 4.430362499999998 10.03727197265625 4.581112499999999 Q 10.03727197265625 4.740862499999999 9.979896972656249 4.887112499999999 Q 9.922521972656249 5.033362499999999 9.82239697265625 5.144737499999999 Q 9.72227197265625 5.256112499999999 9.58502197265625 5.3224874999999985 Q 9.44777197265625 5.388862499999999 9.28802197265625 5.388862499999999 M 8.69627197265625 4.578862499999999 Q 8.69627197265625 4.709362499999998 8.73902197265625 4.8297374999999985 Q 8.78177197265625 4.950112499999999 8.86052197265625 5.043487499999999 Q 8.939271972656249 5.1368624999999986 9.04727197265625 5.191987499999999 Q 9.15527197265625 5.247112499999999 9.28802197265625 5.247112499999999 Q 9.42302197265625 5.247112499999999 9.53327197265625 5.188612499999999 Q 9.643521972656249 5.130112499999999 9.72002197265625 5.035612499999999 Q 9.79652197265625 4.941112499999999 9.838146972656249 4.821862499999999 Q 9.87977197265625 4.702612499999999 9.87977197265625 4.578862499999999 Q 9.87977197265625 4.448362499999998 9.835896972656249 4.327987499999999 Q 9.792021972656249 4.207612499999999 9.71327197265625 4.115362499999999 Q 9.63452197265625 4.023112499999998 9.52652197265625 3.9679874999999987 Q 9.418521972656249 3.9128624999999984 9.28802197265625 3.9128624999999984 Q 9.15302197265625 3.9128624999999984 9.042771972656249 3.9702374999999988 Q 8.93252197265625 4.027612499999998 8.856021972656249 4.122112499999998 Q 8.77952197265625 4.216612499999998 8.73789697265625 4.335862499999998 Q 8.69627197265625 4.4551124999999985 8.69627197265625 4.578862499999999 M 10.489469238281249 4.072612499999998 L 10.489469238281249 5.377612499999999 L 10.33196923828125 5.377612499999999 L 10.33196923828125 3.7801124999999987 L 10.453469238281249 3.7801124999999987 L 11.51096923828125 5.109862499999998 L 11.51096923828125 3.7823624999999987 L 11.668469238281249 3.7823624999999987 L 11.668469238281249 5.377612499999999 L 11.531219238281249 5.377612499999999 L 10.489469238281249 4.072612499999998 M 12.638168701171875 5.377612499999999 L 12.638168701171875 3.7801124999999987 L 13.180418701171874 3.7801124999999987 Q 13.371668701171874 3.7801124999999987 13.514543701171874 3.8431124999999984 Q 13.657418701171874 3.9061124999999985 13.753043701171874 4.014112499999999 Q 13.848668701171874 4.122112499999998 13.897043701171874 4.2672374999999985 Q 13.945418701171874 4.412362499999999 13.945418701171874 4.576612499999999 Q 13.945418701171874 4.758862499999998 13.891418701171874 4.906237499999999 Q 13.837418701171874 5.053612499999999 13.737293701171874 5.1582374999999985 Q 13.637168701171873 5.262862499999999 13.496543701171873 5.320237499999998 Q 13.355918701171873 5.377612499999999 13.180418701171874 5.377612499999999 L 12.638168701171875 5.377612499999999 M 13.787918701171874 4.576612499999999 Q 13.787918701171874 4.4326124999999985 13.747418701171874 4.312237499999998 Q 13.706918701171874 4.191862499999999 13.629293701171875 4.1041124999999985 Q 13.551668701171874 4.016362499999999 13.439168701171875 3.9679874999999987 Q 13.326668701171874 3.9196124999999986 13.180418701171874 3.9196124999999986 L 12.795668701171873 3.9196124999999986 L 12.795668701171873 5.238112499999999 L 13.180418701171874 5.238112499999999 Q 13.328918701171874 5.238112499999999 13.442543701171875 5.187487499999999 Q 13.556168701171874 5.1368624999999986 13.632668701171875 5.047987499999999 Q 13.709168701171874 4.959112499999999 13.748543701171874 4.838737499999999 Q 13.787918701171874 4.718362499999999 13.787918701171874 4.576612499999999 M 15.446229125976561 4.965862499999998 Q 15.446229125976561 5.055862499999999 15.410229125976562 5.131237499999998 Q 15.374229125976562 5.2066124999999985 15.313479125976562 5.261737499999999 Q 15.252729125976561 5.316862499999999 15.171729125976562 5.3472374999999985 Q 15.090729125976562 5.377612499999999 14.998479125976562 5.377612499999999 L 14.244729125976562 5.377612499999999 L 14.244729125976562 3.7801124999999987 L 15.014229125976561 3.7801124999999987 Q 15.097479125976562 3.7801124999999987 15.164979125976561 3.8161124999999987 Q 15.232479125976562 3.8521124999999987 15.279729125976562 3.9094874999999987 Q 15.326979125976562 3.9668624999999986 15.352854125976561 4.039987499999999 Q 15.378729125976562 4.113112499999999 15.378729125976562 4.187362499999999 Q 15.378729125976562 4.308862499999998 15.317979125976562 4.4089874999999985 Q 15.257229125976561 4.509112499999999 15.14922912597656 4.558612499999999 Q 15.286479125976562 4.599112499999999 15.366354125976562 4.709362499999998 Q 15.446229125976561 4.819612499999999 15.446229125976561 4.965862499999998 M 15.288729125976563 4.938862499999999 Q 15.288729125976563 4.880362499999999 15.268479125976562 4.825237499999998 Q 15.248229125976561 4.770112499999999 15.211104125976561 4.728487499999999 Q 15.173979125976562 4.686862499999998 15.123354125976562 4.660987499999999 Q 15.072729125976561 4.635112499999999 15.014229125976561 4.635112499999999 L 14.402229125976561 4.635112499999999 L 14.402229125976561 5.240362499999999 L 14.998479125976562 5.240362499999999 Q 15.059229125976561 5.240362499999999 15.112104125976561 5.215612499999999 Q 15.164979125976561 5.190862499999999 15.204354125976561 5.149237499999999 Q 15.24372912597656 5.107612499999998 15.266229125976562 5.052487499999999 Q 15.288729125976563 4.997362499999999 15.288729125976563 4.938862499999999 M 14.402229125976561 3.9173624999999985 L 14.402229125976561 4.506862499999999 L 14.951229125976562 4.506862499999999 Q 15.009729125976563 4.506862499999999 15.060354125976561 4.482112499999999 Q 15.110979125976561 4.457362499999999 15.14697912597656 4.416862499999999 Q 15.182979125976562 4.376362499999999 15.203229125976561 4.323487499999999 Q 15.223479125976562 4.270612499999999 15.223479125976562 4.212112499999998 Q 15.223479125976562 4.1513624999999985 15.204354125976561 4.097362499999999 Q 15.185229125976562 4.043362499999999 15.150354125976563 4.003987499999999 Q 15.115479125976561 3.9646124999999985 15.068229125976561 3.9409874999999985 Q 15.020979125976561 3.9173624999999985 14.964729125976561 3.9173624999999985 L 14.402229125976561 3.9173624999999985" fill="#bf9525" fill-rule="nonzero"></path></g><g clip-path="url(#SvgjsClipPath1002)"><g clip-path="url(#SvgjsClipPath100068cffb7b-af81-4c97-869f-9cafd487810d)"><path d=" M -7.915716111782933 -1.7813489684235733 L -7.915716111782933 0.8727700735865591 L -0.4000000000000057 0.8727700735865591 L -0.4000000000000057 -1.7813489684235733 Z M -5.787861655280578 -0.040702799154355374 C -6.016305590617581 -0.040792702323584784 -6.201448321235242 -0.2260083237800714 -6.201448303544735 -0.4544522768075887 C -6.201448303544735 -0.5641422759047077 -6.1578741210663015 -0.6693396582134647 -6.08031157887638 -0.7469022004033858 C -6.002749036686453 -0.8244647425933068 -5.897551654377702 -0.8680389250717405 -5.787861655280578 -0.8680389250717405 C -5.6781716561834585 -0.8680389250717405 -5.572974273874696 -0.8244647425933068 -5.495411731684774 -0.7469022004033858 C -5.417849189494859 -0.6693396582134647 -5.374275007016413 -0.5641422759047077 -5.374275007016413 -0.45445227680758293 C -5.37463420214422 -0.22626269974500568 -5.559671813071898 -0.041443637176703296 -5.787861655280578 -0.041354116710670574 Z M -4.15793947058601 -0.040702799154355374 C -4.386383405923013 -0.040792702323584784 -4.571526136540674 -0.2260083237800714 -4.5715261188501675 -0.4544522768075887 C -4.571436258376735 -0.6828326435947216 -4.3863198373732715 -0.8679490645982448 -4.157939470586074 -0.8680389250717405 C -3.929495517558504 -0.8680389427622536 -3.7442798961020163 -0.682896212144599 -3.7441899929327818 -0.4544522768075887 C -3.74454930566446 -0.2261991467147617 -3.9296860576811685 -0.04135383389841629 -4.157939470586038 -0.041354116710670574 Z M -2.527854456502359 -0.040702799154355374 C -2.756298391839376 -0.040792702323584784 -2.9414411224570305 -0.2260083237800714 -2.9414411047665237 -0.4544522768075887 C -2.9414411047665237 -0.5641422759047077 -2.89786692228809 -0.6693396582134647 -2.820304380098168 -0.7469022004033858 C -2.742741837908248 -0.8244647425933068 -2.6375444555994907 -0.8680389250717405 -2.5278544565023715 -0.8680389250717405 C -2.4181644574052292 -0.8680389250717405 -2.3129670750964717 -0.8244647425933068 -2.2354045329065517 -0.7469022004033858 C -2.15784199071663 -0.6693396582134647 -2.114267808238191 -0.5641422759047077 -2.114267808238191 -0.45445227680758293 C -2.114627003365996 -0.22626269974500568 -2.2996646142936754 -0.041443637176703296 -2.5278544565023484 -0.041354116710670574 Z" fill="#273946" transform="matrix(1,0,0,1,0,0)" fill-rule="nonzero"></path></g><g clip-path="url(#SvgjsClipPath100068cffb7b-af81-4c97-869f-9cafd487810d)"><path d=" M -7.915716111782933 1.3612582408276905 L -7.915716111782933 4.015377282837827 L -0.4000000000000057 4.015377282837827 L -0.4000000000000057 1.3612582408276905 Z M -5.787861655280578 3.1019044100969118 C -5.89755165437769 3.1019044100969118 -6.002749036686453 3.058330227618478 -6.08031157887638 2.98076768542856 C -6.157874121066289 2.9032051432386417 -6.201448303544735 2.7980077609298815 -6.201448303544735 2.688317761832757 C -6.201448303544735 2.578627762735635 -6.1578741210663015 2.473430380426881 -6.08031157887638 2.3958678382369567 C -6.002749036686453 2.3183052960470385 -5.897551654377702 2.274731113568602 -5.787861655280578 2.274731113568602 C -5.6781716561834585 2.274731113568602 -5.572974273874696 2.3183052960470385 -5.495411731684774 2.3958678382369567 C -5.417849189494859 2.473430380426875 -5.374275007016413 2.578627762735635 -5.374275007016413 2.688317761832757 C -5.374145351873626 2.798092372811476 -5.4176622899624505 2.9034152925742798 -5.495238889457466 2.981083517974221 C -5.572815488952493 3.058751743374159 -5.678086967733854 3.102392974832179 -5.787861655280583 3.102392898264157 Z M -4.15793947058601 3.1019044100969118 C -4.267629469683122 3.1019044100969118 -4.372826851991885 3.058330227618478 -4.450389394181812 2.98076768542856 C -4.527951936371727 2.9032051432386417 -4.5715261188501675 2.7980077609298815 -4.5715261188501675 2.688317761832757 C -4.5715261188501675 2.578627762735635 -4.527951936371734 2.473430380426881 -4.450389394181812 2.3958678382369567 C -4.372826851991885 2.3183052960470385 -4.2676294696831345 2.274731113568602 -4.15793947058601 2.274731113568602 C -3.929495517558504 2.274731095878089 -3.7442798961020163 2.459873826495747 -3.7441899929327818 2.6883177618327543 C -3.744103578425557 2.7981073592500194 -3.787656764482419 2.903429839873237 -3.8652592112394135 2.9810933668716593 C -3.9428616579963975 3.0587568938700787 -4.04814983916074 3.1023929322722403 -4.157939470586044 3.102392898264157 Z M -2.527854456502359 3.1019044100969118 C -2.6375444555994783 3.1019044100969118 -2.742741837908248 3.058330227618478 -2.820304380098168 2.98076768542856 C -2.897866922288083 2.9032051432386417 -2.9414411047665237 2.7980077609298815 -2.9414411047665237 2.688317761832757 C -2.9414411047665237 2.578627762735635 -2.89786692228809 2.473430380426881 -2.820304380098168 2.3958678382369567 C -2.742741837908248 2.3183052960470385 -2.6375444555994907 2.274731113568602 -2.5278544565023715 2.274731113568602 C -2.4181644574052292 2.274731113568602 -2.3129670750964717 2.3183052960470385 -2.2354045329065517 2.3958678382369567 C -2.15784199071663 2.473430380426875 -2.114267808238191 2.578627762735635 -2.114267808238191 2.688317761832757 C -2.1141381530954018 2.798092372811476 -2.1576550911842265 2.9034152925742798 -2.235231690679237 2.981083517974221 C -2.312808290174269 3.058751743374159 -2.4180797689556304 3.102392974832179 -2.527854456502359 3.102392898264157 Z" fill="#273946" transform="matrix(1,0,0,1,0,0)" fill-rule="nonzero"></path></g><g clip-path="url(#SvgjsClipPath100068cffb7b-af81-4c97-869f-9cafd487810d)"><path d=" M -7.915716111782933 4.50565657335884 L -7.915716111782933 7.159775615368975 L -0.4000000000000057 7.159775615368975 L -0.4000000000000057 4.50565657335884 Z M -5.787861655280578 6.2461399132389825 C -5.89755165437769 6.2461399132389825 -6.002749036686453 6.202565730760547 -6.08031157887638 6.125003188570627 C -6.157874121066289 6.047440646380709 -6.201448303544735 5.942243264071951 -6.201448303544735 5.832553264974827 C -6.201448303544735 5.722863265877702 -6.1578741210663015 5.617665883568948 -6.08031157887638 5.540103341379023 C -6.002749036686453 5.462540799189105 -5.897551654377702 5.418966616710673 -5.787861655280578 5.418966616710673 C -5.6781716561834585 5.418966616710673 -5.572974273874696 5.462540799189105 -5.495411731684774 5.540103341379023 C -5.417849189494859 5.617665883568941 -5.374275007016413 5.722863265877702 -5.374275007016413 5.832553264974827 C -5.374275007016413 5.942243264071951 -5.417849189494852 6.047440646380705 -5.495411731684774 6.125003188570627 C -5.572974273874696 6.202565730760547 -5.678171656183453 6.2461399132389825 -5.787861655280578 6.2461399132389825 Z M -4.15793947058601 6.2461399132389825 C -4.267629469683122 6.2461399132389825 -4.372826851991885 6.202565730760547 -4.450389394181812 6.125003188570627 C -4.527951936371727 6.047440646380709 -4.5715261188501675 5.942243264071951 -4.5715261188501675 5.832553264974827 C -4.5715261188501675 5.722863265877702 -4.527951936371734 5.617665883568948 -4.450389394181812 5.540103341379023 C -4.372826851991885 5.462540799189105 -4.2676294696831345 5.418966616710673 -4.15793947058601 5.418966616710673 C -3.929495517558504 5.418966599020155 -3.7442798961020163 5.604109329637813 -3.7441899929327818 5.8325532649748215 C -3.744279896102034 6.06099720031186 -3.9294955175585216 6.246139930929509 -4.157939470586044 6.246139913238984 Z M -2.527854456502359 6.2461399132389825 C -2.6375444555994783 6.2461399132389825 -2.742741837908248 6.202565730760547 -2.820304380098168 6.125003188570627 C -2.897866922288083 6.047440646380709 -2.9414411047665237 5.942243264071951 -2.9414411047665237 5.832553264974827 C -2.9414411047665237 5.722863265877702 -2.89786692228809 5.617665883568948 -2.820304380098168 5.540103341379023 C -2.742741837908248 5.462540799189105 -2.6375444555994907 5.418966616710673 -2.5278544565023715 5.418966616710673 C -2.4181644574052292 5.418966616710673 -2.3129670750964717 5.462540799189105 -2.2354045329065517 5.540103341379023 C -2.15784199071663 5.617665883568941 -2.114267808238191 5.722863265877702 -2.114267808238191 5.832553264974827 C -2.114267808238191 5.942243264071951 -2.1578419907166175 6.047440646380705 -2.2354045329065517 6.125003188570627 C -2.3129670750964717 6.202565730760547 -2.4181644574052292 6.2461399132389825 -2.5278544565023484 6.2461399132389825 Z" fill="#273946" transform="matrix(1,0,0,1,0,0)" fill-rule="nonzero"></path></g><g clip-path="url(#SvgjsClipPath100068cffb7b-af81-4c97-869f-9cafd487810d)"><path d=" M -8.404041449634985 -1.7686482760753084 C -8.510531870093551 -1.7774410630856465 -8.618270649201735 -1.781891733053844 -8.727257786959536 -1.7820002859798945 C -10.0487232869226 -1.7825286583208626 -11.282767965153177 -1.1216821471257636 -12.014783152492338 -0.021488931242861442 C -12.134792070330045 -0.03996830112120242 -12.255984393007651 -0.04970939935169194 -12.377404201974315 -0.05063539188825983 C -13.659324447673663 -0.05069789293516336 -14.730042410807261 0.9262051853748208 -14.847200375545475 2.2027605235950767 C -16.04740632958232 2.3972470694759385 -16.929565455775133 3.433247906802673 -16.93027675005073 4.649109265138652 C -16.930319955257087 5.307103006011559 -16.668929804516186 5.938154677996355 -16.203627430702493 6.4033959764837824 C -15.738325056888804 6.8686372749712135 -15.107239078165913 7.129944586538517 -14.449245348633282 7.129815007778188 L -8.404041449634985 7.136165353952322 Z" fill="#273946" transform="matrix(1,0,0,1,0,0)" fill-rule="nonzero"></path></g></g></g><defs><clipPath id="SvgjsClipPath1002"><path d=" M -16.93027675005073 -1.7820002859798945 h 16.53027675005073 v 8.941613071959788 h -16.53027675005073 Z"></path></clipPath><clipPath id="SvgjsClipPath100068cffb7b-af81-4c97-869f-9cafd487810d"><path d=" M -16.93027675005073 -1.7820002859798945 L -0.3999999999999986 -1.7820002859798945 L -0.3999999999999986 7.159612785979894 L -16.93027675005073 7.159612785979894 Z"></path></clipPath></defs></svg>