<svg xmlns="http://www.w3.org/2000/svg" version="1.1" xmlns:xlink="http://www.w3.org/1999/xlink" xmlns:svgjs="http://svgjs.dev/svgjs" viewBox="0 0 6.43073448734306 5.649449443197407"><g transform="matrix(1,0,0,1,0.7668387309762177,3.4724412681672256)"><g><path d=" M 0.8496495000000001 0.8091899999999996 L 0.8496495000000001 1.0639349999999996 L 0.0914085 1.0639349999999996 L 0.0914085 -4.440892098500626e-16 L 0.836163 -4.440892098500626e-16 L 0.836163 0.25474499999999956 L 0.383616 0.25474499999999956 L 0.383616 0.4045949999999996 L 0.770229 0.4045949999999996 L 0.770229 0.6413579999999997 L 0.383616 0.6413579999999997 L 0.383616 0.8091899999999996 L 0.8496495000000001 0.8091899999999996 M 1.1897863176269532 -4.440892098500626e-16 L 1.398077817626953 0.7267724999999996 L 1.6033723176269532 -4.440892098500626e-16 L 1.9105648176269532 -4.440892098500626e-16 L 1.5434323176269533 1.0639349999999996 L 1.2527233176269532 1.0639349999999996 L 0.8810953176269531 -4.440892098500626e-16 L 1.1897863176269532 -4.440892098500626e-16 M 2.7482219274902344 0.8091899999999996 L 2.7482219274902344 1.0639349999999996 L 1.9899809274902345 1.0639349999999996 L 1.9899809274902345 -4.440892098500626e-16 L 2.7347354274902345 -4.440892098500626e-16 L 2.7347354274902345 0.25474499999999956 L 2.2821884274902344 0.25474499999999956 L 2.2821884274902344 0.4045949999999996 L 2.6688014274902345 0.4045949999999996 L 2.6688014274902345 0.6413579999999997 L 2.2821884274902344 0.6413579999999997 L 2.2821884274902344 0.8091899999999996 L 2.7482219274902344 0.8091899999999996 M 2.8830642451171875 1.0639349999999996 L 2.8830642451171875 -4.440892098500626e-16 L 3.2921547451171875 -4.440892098500626e-16 Q 3.4689777451171873 -4.440892098500626e-16 3.5881084951171873 0.07117874999999962 Q 3.7072392451171874 0.14235749999999958 3.7679284951171876 0.2629867499999996 Q 3.8286177451171874 0.3836159999999996 3.8286177451171874 0.5304689999999996 Q 3.8286177451171874 0.6923069999999996 3.7619344951171874 0.8121869999999995 Q 3.6952512451171877 0.9320669999999996 3.5746219951171874 0.9980009999999996 Q 3.4539927451171875 1.0639349999999996 3.2921547451171875 1.0639349999999996 L 2.8830642451171875 1.0639349999999996 M 3.5319147451171875 0.5304689999999996 Q 3.5319147451171875 0.4480514999999996 3.5034432451171877 0.3858637499999996 Q 3.4749717451171875 0.32367599999999963 3.4210257451171877 0.2892104999999996 Q 3.3670797451171874 0.25474499999999956 3.2921547451171875 0.25474499999999956 L 3.1752717451171875 0.25474499999999956 L 3.1752717451171875 0.8091899999999996 L 3.2921547451171875 0.8091899999999996 Q 3.3685782451171873 0.8091899999999996 3.4217749951171874 0.7732259999999996 Q 3.4749717451171875 0.7372619999999996 3.5034432451171877 0.6735757499999997 Q 3.5319147451171875 0.6098894999999996 3.5319147451171875 0.5304689999999996 M 4.85959086694336 0.7912079999999997 Q 4.85959086694336 0.8871119999999997 4.807892616943359 0.9470519999999997 Q 4.75619436694336 1.0069919999999997 4.66928136694336 1.0354634999999996 Q 4.58236836694336 1.0639349999999996 4.47747336694336 1.0639349999999996 L 3.9544968669433596 1.0639349999999996 L 3.9544968669433596 -4.440892098500626e-16 L 4.57187886694336 -4.440892098500626e-16 Q 4.64680386694336 -4.440892098500626e-16 4.70149911694336 0.0397102499999995 Q 4.75619436694336 0.07942049999999956 4.785415116943359 0.14235749999999958 Q 4.81463586694336 0.2052944999999996 4.81463586694336 0.2727269999999996 Q 4.81463586694336 0.34615349999999956 4.776424116943359 0.41508449999999963 Q 4.73821236694336 0.4840154999999996 4.661788866943359 0.5184809999999996 Q 4.753197366943359 0.5454539999999997 4.80639411694336 0.6128864999999997 Q 4.85959086694336 0.6803189999999997 4.85959086694336 0.7912079999999997 M 4.56288786694336 0.7312679999999996 Q 4.56288786694336 0.7042949999999997 4.55314761694336 0.6840652499999996 Q 4.5434073669433594 0.6638354999999996 4.52692386694336 0.6518474999999997 Q 4.510440366943359 0.6398594999999996 4.487962866943359 0.6398594999999996 L 4.2467043669433595 0.6398594999999996 L 4.2467043669433595 0.8181809999999996 L 4.47747336694336 0.8181809999999996 Q 4.501449366943359 0.8181809999999996 4.5209298669433595 0.8076914999999996 Q 4.54041036694336 0.7972019999999996 4.551649116943359 0.7777214999999996 Q 4.56288786694336 0.7582409999999996 4.56288786694336 0.7312679999999996 M 4.2467043669433595 0.2487509999999996 L 4.2467043669433595 0.4120874999999996 L 4.44600486694336 0.4120874999999996 Q 4.465485366943359 0.4120874999999996 4.483467366943359 0.40534424999999963 Q 4.501449366943359 0.39860099999999965 4.51343736694336 0.3806189999999996 Q 4.5254253669433595 0.36263699999999965 4.5254253669433595 0.3296699999999996 Q 4.5254253669433595 0.29969999999999963 4.515685116943359 0.2824672499999996 Q 4.505944866943359 0.2652344999999996 4.49021061694336 0.25699274999999966 Q 4.474476366943359 0.2487509999999996 4.45499586694336 0.2487509999999996 L 4.2467043669433595 0.2487509999999996" fill="#002540" fill-rule="nonzero"></path></g><g><path d=" M 0.4505480227661132 1.5380161874999996 Q 0.4505480227661132 1.5662461874999996 0.4392560227661132 1.5898888124999995 Q 0.42796402276611323 1.6135314374999996 0.4089087727661132 1.6308223124999996 Q 0.38985352276611324 1.6481131874999995 0.3644465227661132 1.6576408124999995 Q 0.3390395227661132 1.6671684374999995 0.31010377276611323 1.6671684374999995 L 0.07367752276611322 1.6671684374999995 L 0.07367752276611322 1.1660859374999997 L 0.3150440227661132 1.1660859374999997 Q 0.3411567727661132 1.1660859374999997 0.3623292727661132 1.1773779374999995 Q 0.38350177276611325 1.1886699374999996 0.39832252276611324 1.2066665624999995 Q 0.41314327276611323 1.2246631874999996 0.4212593977661132 1.2476000624999997 Q 0.42937552276611324 1.2705369374999995 0.42937552276611324 1.2938266874999995 Q 0.42937552276611324 1.3319371874999995 0.4103202727661132 1.3633430624999996 Q 0.39126502276611325 1.3947489374999995 0.35738902276611323 1.4102754374999995 Q 0.4004397727661132 1.4229789374999995 0.42549389776611324 1.4575606874999996 Q 0.4505480227661132 1.4921424374999996 0.4505480227661132 1.5380161874999996 M 0.4011455227661132 1.5295471874999995 Q 0.4011455227661132 1.5111976874999995 0.3947937727661132 1.4939068124999995 Q 0.3884420227661132 1.4766159374999996 0.3767971477661132 1.4635595624999995 Q 0.36515227276611323 1.4505031874999996 0.3492728977661132 1.4423870624999995 Q 0.3333935227661132 1.4342709374999996 0.3150440227661132 1.4342709374999996 L 0.12308002276611323 1.4342709374999996 L 0.12308002276611323 1.6241176874999996 L 0.31010377276611323 1.6241176874999996 Q 0.3291590227661132 1.6241176874999996 0.34574414776611323 1.6163544374999996 Q 0.3623292727661132 1.6085911874999996 0.3746798977661132 1.5955348124999995 Q 0.3870305227661132 1.5824784374999996 0.3940880227661132 1.5651875624999996 Q 0.4011455227661132 1.5478966874999995 0.4011455227661132 1.5295471874999995 M 0.12308002276611323 1.2091366874999996 L 0.12308002276611323 1.3940431874999994 L 0.29528302276611323 1.3940431874999994 Q 0.3136325227661132 1.3940431874999994 0.3295118977661132 1.3862799374999994 Q 0.3453912727661132 1.3785166874999994 0.3566832727661132 1.3658131874999995 Q 0.36797527276611325 1.3531096874999995 0.37432702276611324 1.3365245624999995 Q 0.3806787727661132 1.3199394374999995 0.3806787727661132 1.3015899374999995 Q 0.3806787727661132 1.2825346874999997 0.3746798977661132 1.2655966874999995 Q 0.3686810227661132 1.2486586874999994 0.3577418977661132 1.2363080624999996 Q 0.3468027727661132 1.2239574374999995 0.3319820227661132 1.2165470624999997 Q 0.3171612727661132 1.2091366874999996 0.2995175227661132 1.2091366874999996 L 0.12308002276611323 1.2091366874999996 M 0.8796550501098632 1.6234119374999996 L 0.8796550501098632 1.6671684374999995 L 0.5430123001098632 1.6671684374999995 L 0.5430123001098632 1.1660859374999997 L 0.8733033001098632 1.1660859374999997 L 0.8733033001098632 1.2098424374999994 L 0.5924148001098632 1.2098424374999994 L 0.5924148001098632 1.3905144374999996 L 0.8373100501098633 1.3905144374999996 L 0.8373100501098633 1.4321536874999996 L 0.5924148001098632 1.4321536874999996 L 0.5924148001098632 1.6234119374999996 L 0.8796550501098632 1.6234119374999996 M 1.254404164855957 1.2599506874999995 Q 1.233231664855957 1.2359551874999997 1.197944164855957 1.2211344374999995 Q 1.162656664855957 1.2063136874999996 1.117488664855957 1.2063136874999996 Q 1.051148164855957 1.2063136874999996 1.020800914855957 1.2313678124999996 Q 0.990453664855957 1.2564219374999994 0.990453664855957 1.2994726874999996 Q 0.990453664855957 1.3220566874999995 0.998569789855957 1.3365245624999995 Q 1.006685914855957 1.3509924374999995 1.023623914855957 1.3615786874999996 Q 1.040561914855957 1.3721649374999996 1.067027539855957 1.3799281874999996 Q 1.093493164855957 1.3876914374999996 1.129486414855957 1.3954546874999996 Q 1.169714164855957 1.4039236874999996 1.201825789855957 1.4145099374999996 Q 1.233937414855957 1.4250961874999994 1.256521414855957 1.4409755624999996 Q 1.279105414855957 1.4568549374999995 1.291103164855957 1.4794389374999994 Q 1.303100914855957 1.5020229374999996 1.303100914855957 1.5358989374999996 Q 1.303100914855957 1.5704806874999995 1.2896916648559569 1.5958876874999994 Q 1.276282414855957 1.6212946874999996 1.252286914855957 1.6382326874999995 Q 1.228291414855957 1.6551706874999996 1.195121164855957 1.6632868124999995 Q 1.161950914855957 1.6714029374999995 1.122428914855957 1.6714029374999995 Q 1.005980164855957 1.6714029374999995 0.921290164855957 1.5987106874999994 L 0.945991414855957 1.5584829374999996 Q 0.959400664855957 1.5725979374999994 0.978103039855957 1.5853014374999996 Q 0.996805414855957 1.5980049374999996 1.019742289855957 1.6075325624999997 Q 1.042679164855957 1.6170601874999995 1.068791914855957 1.6223533124999996 Q 1.094904664855957 1.6276464374999995 1.123840414855957 1.6276464374999995 Q 1.1838291648559571 1.6276464374999995 1.217352289855957 1.6061210624999995 Q 1.2508754148559569 1.5845956874999996 1.2508754148559569 1.5408391874999996 Q 1.2508754148559569 1.5175494374999996 1.241347789855957 1.5016700624999995 Q 1.231820164855957 1.4857906874999995 1.212764914855957 1.4741458124999995 Q 1.193709664855957 1.4625009374999995 1.1654796648559569 1.4540319374999995 Q 1.137249664855957 1.4455629374999996 1.099844914855957 1.4370939374999996 Q 1.060322914855957 1.4279191874999995 1.030681414855957 1.4180386874999995 Q 1.001039914855957 1.4081581874999995 0.980573164855957 1.3933374374999996 Q 0.960106414855957 1.3785166874999994 0.949873039855957 1.3576970624999996 Q 0.939639664855957 1.3368774374999997 0.939639664855957 1.3065301874999995 Q 0.939639664855957 1.2719484374999994 0.952696039855957 1.2447770624999994 Q 0.965752414855957 1.2176056874999994 0.989747914855957 1.1996090624999995 Q 1.013743414855957 1.1816124374999997 1.046207914855957 1.1720848124999996 Q 1.078672414855957 1.1625571874999996 1.118194414855957 1.1625571874999996 Q 1.1683026648559571 1.1625571874999996 1.207471789855957 1.1777308124999997 Q 1.246640914855957 1.1929044374999995 1.278399664855957 1.2204286874999997 L 1.254404164855957 1.2599506874999995 M 1.7413644281616212 1.2098424374999994 L 1.562809678161621 1.2098424374999994 L 1.562809678161621 1.6671684374999995 L 1.513407178161621 1.6671684374999995 L 1.513407178161621 1.2098424374999994 L 1.334852428161621 1.2098424374999994 L 1.334852428161621 1.1660859374999997 L 1.7413644281616212 1.1660859374999997 L 1.7413644281616212 1.2098424374999994 M 1.9170944551391602 1.6043566874999995 Q 1.9326209551391602 1.6149429374999995 1.9569693301391602 1.6227061874999995 Q 1.9813177051391602 1.6304694374999995 2.0116649551391603 1.6304694374999995 Q 2.04977545513916 1.6304694374999995 2.07271233013916 1.6167073124999995 Q 2.09564920513916 1.6029451874999996 2.10764695513916 1.5761266874999995 Q 2.11964470513916 1.5493081874999994 2.12317345513916 1.5101390624999995 Q 2.12670220513916 1.4709699374999996 2.12670220513916 1.4208616874999995 L 2.12670220513916 1.1660859374999997 L 2.17610470513916 1.1660859374999997 L 2.17610470513916 1.4208616874999995 Q 2.17610470513916 1.4780274374999995 2.1708115801391603 1.5249598124999995 Q 2.16551845513916 1.5718921874999996 2.14858045513916 1.6050624374999996 Q 2.13164245513916 1.6382326874999995 2.0991779551391603 1.6565821874999995 Q 2.06671345513916 1.6749316874999995 2.0116649551391603 1.6749316874999995 Q 1.9481474551391602 1.6749316874999995 1.9029794551391601 1.6438786874999995 L 1.9170944551391602 1.6043566874999995 M 2.587569705505371 1.2599506874999995 Q 2.5663972055053708 1.2359551874999997 2.531109705505371 1.2211344374999995 Q 2.495822205505371 1.2063136874999996 2.450654205505371 1.2063136874999996 Q 2.384313705505371 1.2063136874999996 2.353966455505371 1.2313678124999996 Q 2.323619205505371 1.2564219374999994 2.323619205505371 1.2994726874999996 Q 2.323619205505371 1.3220566874999995 2.3317353305053707 1.3365245624999995 Q 2.339851455505371 1.3509924374999995 2.356789455505371 1.3615786874999996 Q 2.373727455505371 1.3721649374999996 2.400193080505371 1.3799281874999996 Q 2.4266587055053708 1.3876914374999996 2.462651955505371 1.3954546874999996 Q 2.502879705505371 1.4039236874999996 2.534991330505371 1.4145099374999996 Q 2.567102955505371 1.4250961874999994 2.5896869555053708 1.4409755624999996 Q 2.612270955505371 1.4568549374999995 2.624268705505371 1.4794389374999994 Q 2.636266455505371 1.5020229374999996 2.636266455505371 1.5358989374999996 Q 2.636266455505371 1.5704806874999995 2.6228572055053707 1.5958876874999994 Q 2.609447955505371 1.6212946874999996 2.585452455505371 1.6382326874999995 Q 2.561456955505371 1.6551706874999996 2.528286705505371 1.6632868124999995 Q 2.495116455505371 1.6714029374999995 2.455594455505371 1.6714029374999995 Q 2.339145705505371 1.6714029374999995 2.254455705505371 1.5987106874999994 L 2.279156955505371 1.5584829374999996 Q 2.292566205505371 1.5725979374999994 2.311268580505371 1.5853014374999996 Q 2.329970955505371 1.5980049374999996 2.352907830505371 1.6075325624999997 Q 2.375844705505371 1.6170601874999995 2.401957455505371 1.6223533124999996 Q 2.428070205505371 1.6276464374999995 2.457005955505371 1.6276464374999995 Q 2.516994705505371 1.6276464374999995 2.550517830505371 1.6061210624999995 Q 2.5840409555053707 1.5845956874999996 2.5840409555053707 1.5408391874999996 Q 2.5840409555053707 1.5175494374999996 2.574513330505371 1.5016700624999995 Q 2.564985705505371 1.4857906874999995 2.545930455505371 1.4741458124999995 Q 2.526875205505371 1.4625009374999995 2.4986452055053707 1.4540319374999995 Q 2.470415205505371 1.4455629374999996 2.433010455505371 1.4370939374999996 Q 2.393488455505371 1.4279191874999995 2.363846955505371 1.4180386874999995 Q 2.334205455505371 1.4081581874999995 2.313738705505371 1.3933374374999996 Q 2.293271955505371 1.3785166874999994 2.283038580505371 1.3576970624999996 Q 2.272805205505371 1.3368774374999997 2.272805205505371 1.3065301874999995 Q 2.272805205505371 1.2719484374999994 2.285861580505371 1.2447770624999994 Q 2.298917955505371 1.2176056874999994 2.322913455505371 1.1996090624999995 Q 2.346908955505371 1.1816124374999997 2.379373455505371 1.1720848124999996 Q 2.411837955505371 1.1625571874999996 2.451359955505371 1.1625571874999996 Q 2.501468205505371 1.1625571874999996 2.540637330505371 1.1777308124999997 Q 2.579806455505371 1.1929044374999995 2.611565205505371 1.2204286874999997 L 2.587569705505371 1.2599506874999995 M 2.9242086648559567 1.6706971874999996 Q 2.8719831648559566 1.6706971874999996 2.828579539855957 1.6491718124999994 Q 2.785175914855957 1.6276464374999995 2.754122914855957 1.5920060624999994 Q 2.723069914855957 1.5563656874999996 2.706131914855957 1.5104919374999994 Q 2.6891939148559567 1.4646181874999995 2.6891939148559567 1.4166271874999996 Q 2.6891939148559567 1.3665189374999995 2.707190539855957 1.3206451874999996 Q 2.725187164855957 1.2747714374999997 2.7569459148559567 1.2394839374999995 Q 2.788704664855957 1.2041964374999996 2.831755414855957 1.1833768124999995 Q 2.874806164855957 1.1625571874999996 2.924914414855957 1.1625571874999996 Q 2.977139914855957 1.1625571874999996 3.020543539855957 1.1847883124999996 Q 3.063947164855957 1.2070194374999996 3.0946472898559567 1.2430126874999996 Q 3.125347414855957 1.2790059374999996 3.142285414855957 1.3245268124999996 Q 3.1592234148559566 1.3700476874999996 3.1592234148559566 1.4173329374999994 Q 3.1592234148559566 1.4674411874999995 3.1412267898559567 1.5133149374999995 Q 3.123230164855957 1.5591886874999996 3.091824289855957 1.5941233124999996 Q 3.060418414855957 1.6290579374999996 3.0173676648559566 1.6498775624999995 Q 2.9743169148559567 1.6706971874999996 2.9242086648559567 1.6706971874999996 M 2.738596414855957 1.4166271874999996 Q 2.738596414855957 1.4575606874999996 2.752005664855957 1.4953183124999996 Q 2.765414914855957 1.5330759374999996 2.7901161648559567 1.5623645624999996 Q 2.814817414855957 1.5916531874999995 2.8486934148559566 1.6089440624999995 Q 2.882569414855957 1.6262349374999996 2.9242086648559567 1.6262349374999996 Q 2.9665536648559567 1.6262349374999996 3.001135414855957 1.6078854374999996 Q 3.035717164855957 1.5895359374999996 3.0597126648559567 1.5598944374999995 Q 3.083708164855957 1.5302529374999996 3.0967645398559567 1.4928481874999995 Q 3.109820914855957 1.4554434374999996 3.109820914855957 1.4166271874999996 Q 3.109820914855957 1.3756936874999997 3.096058789855957 1.3379360624999994 Q 3.082296664855957 1.3001784374999996 3.0575954148559568 1.2712426874999996 Q 3.0328941648559566 1.2423069374999995 2.999018164855957 1.2250160624999995 Q 2.9651421648559566 1.2077251874999995 2.9242086648559567 1.2077251874999995 Q 2.881863664855957 1.2077251874999995 2.847281914855957 1.2257218124999996 Q 2.812700164855957 1.2437184374999997 2.788704664855957 1.2733599374999995 Q 2.7647091648559567 1.3030014374999994 2.7516527898559566 1.3404061874999995 Q 2.738596414855957 1.3778109374999996 2.738596414855957 1.4166271874999996 M 3.3010626238403318 1.2578334374999995 L 3.3010626238403318 1.6671684374999995 L 3.2516601238403315 1.6671684374999995 L 3.2516601238403315 1.1660859374999997 L 3.2897706238403317 1.1660859374999997 L 3.6214731238403317 1.5831841874999995 L 3.6214731238403317 1.1667916874999995 L 3.670875623840332 1.1667916874999995 L 3.670875623840332 1.6671684374999995 L 3.6278248738403316 1.6671684374999995 L 3.3010626238403318 1.2578334374999995 M 3.9750380220336905 1.6671684374999995 L 3.9750380220336905 1.1660859374999997 L 4.145123772033691 1.1660859374999997 Q 4.205112522033691 1.1660859374999997 4.249927647033691 1.1858469374999996 Q 4.294742772033691 1.2056079374999995 4.324737147033691 1.2394839374999995 Q 4.354731522033691 1.2733599374999995 4.36990514703369 1.3188808124999996 Q 4.38507877203369 1.3644016874999996 4.38507877203369 1.4159214374999995 Q 4.38507877203369 1.4730871874999996 4.368140772033691 1.5193138124999996 Q 4.351202772033691 1.5655404374999995 4.319796897033691 1.5983578124999995 Q 4.28839102203369 1.6311751874999996 4.244281647033691 1.6491718124999994 Q 4.200172272033691 1.6671684374999995 4.145123772033691 1.6671684374999995 L 3.9750380220336905 1.6671684374999995 M 4.335676272033691 1.4159214374999995 Q 4.335676272033691 1.3707534374999994 4.32297277203369 1.3329958124999997 Q 4.310269272033691 1.2952381874999994 4.285920897033691 1.2677139374999995 Q 4.261572522033691 1.2401896874999996 4.22628502203369 1.2250160624999995 Q 4.19099752203369 1.2098424374999994 4.145123772033691 1.2098424374999994 L 4.02444052203369 1.2098424374999994 L 4.02444052203369 1.6234119374999996 L 4.145123772033691 1.6234119374999996 Q 4.19170327203369 1.6234119374999996 4.227343647033691 1.6075325624999997 Q 4.262984022033691 1.5916531874999995 4.286979522033691 1.5637760624999995 Q 4.31097502203369 1.5358989374999996 4.32332564703369 1.4981413124999996 Q 4.335676272033691 1.4603836874999996 4.335676272033691 1.4159214374999995 M 4.8558329752807605 1.5380161874999996 Q 4.8558329752807605 1.5662461874999996 4.84454097528076 1.5898888124999995 Q 4.83324897528076 1.6135314374999996 4.814193725280761 1.6308223124999996 Q 4.795138475280761 1.6481131874999995 4.769731475280761 1.6576408124999995 Q 4.744324475280761 1.6671684374999995 4.715388725280761 1.6671684374999995 L 4.478962475280761 1.6671684374999995 L 4.478962475280761 1.1660859374999997 L 4.7203289752807605 1.1660859374999997 Q 4.746441725280761 1.1660859374999997 4.767614225280761 1.1773779374999995 Q 4.788786725280761 1.1886699374999996 4.803607475280761 1.2066665624999995 Q 4.818428225280761 1.2246631874999996 4.826544350280761 1.2476000624999997 Q 4.834660475280761 1.2705369374999995 4.834660475280761 1.2938266874999995 Q 4.834660475280761 1.3319371874999995 4.815605225280761 1.3633430624999996 Q 4.796549975280761 1.3947489374999995 4.7626739752807605 1.4102754374999995 Q 4.8057247252807604 1.4229789374999995 4.830778850280761 1.4575606874999996 Q 4.8558329752807605 1.4921424374999996 4.8558329752807605 1.5380161874999996 M 4.806430475280761 1.5295471874999995 Q 4.806430475280761 1.5111976874999995 4.800078725280761 1.4939068124999995 Q 4.7937269752807605 1.4766159374999996 4.7820821002807605 1.4635595624999995 Q 4.7704372252807605 1.4505031874999996 4.754557850280761 1.4423870624999995 Q 4.738678475280761 1.4342709374999996 4.7203289752807605 1.4342709374999996 L 4.528364975280761 1.4342709374999996 L 4.528364975280761 1.6241176874999996 L 4.715388725280761 1.6241176874999996 Q 4.734443975280761 1.6241176874999996 4.7510291002807605 1.6163544374999996 Q 4.767614225280761 1.6085911874999996 4.779964850280761 1.5955348124999995 Q 4.792315475280761 1.5824784374999996 4.799372975280761 1.5651875624999996 Q 4.806430475280761 1.5478966874999995 4.806430475280761 1.5295471874999995 M 4.528364975280761 1.2091366874999996 L 4.528364975280761 1.3940431874999994 L 4.7005679752807605 1.3940431874999994 Q 4.718917475280761 1.3940431874999994 4.734796850280761 1.3862799374999994 Q 4.750676225280761 1.3785166874999994 4.761968225280761 1.3658131874999995 Q 4.773260225280761 1.3531096874999995 4.779611975280761 1.3365245624999995 Q 4.7859637252807605 1.3199394374999995 4.7859637252807605 1.3015899374999995 Q 4.7859637252807605 1.2825346874999997 4.779964850280761 1.2655966874999995 Q 4.773965975280761 1.2486586874999994 4.7630268502807604 1.2363080624999996 Q 4.752087725280761 1.2239574374999995 4.737266975280761 1.2165470624999997 Q 4.722446225280761 1.2091366874999996 4.7048024752807605 1.2091366874999996 L 4.528364975280761 1.2091366874999996" fill="#bf9525" fill-rule="nonzero"></path></g><g clip-path="url(#SvgjsClipPath1002)"><g clip-path="url(#SvgjsClipPath1000cb3130f4-dc54-4447-b5bb-a8ca74d8b1c8)"><path d=" M 2.694549862494671 -2.970150965232546 L 2.694549862494671 -2.098853191907278 L 5.161819268836658 -2.098853191907278 L 5.161819268836658 -2.970150965232546 Z M 3.393084788986364 -2.3987292967143197 C 3.318090906256053 -2.398758810247784 3.257312001323306 -2.4595616438832604 3.2573120071307695 -2.534555532421037 C 3.2573120071307695 -2.5705647130405267 3.2716165984346977 -2.605099051370675 3.2970789342357105 -2.630561387171688 C 3.3225412700367256 -2.6560237229727015 3.357075608366872 -2.6703283142766296 3.393084788986364 -2.6703283142766296 C 3.4290939696058538 -2.6703283142766296 3.463628307936004 -2.6560237229727015 3.489090643737017 -2.630561387171688 C 3.5145529795380286 -2.605099051370675 3.5288575708419603 -2.5705647130405267 3.5288575708419603 -2.534555532421035 C 3.5287396537816877 -2.4596451507675887 3.4679952576823294 -2.3989725000179583 3.393084788986364 -2.3989431121188147 Z M 3.928157838740103 -2.3987292967143197 C 3.8531639560097917 -2.398758810247784 3.7923850510770443 -2.4595616438832604 3.792385056884508 -2.534555532421037 C 3.792414556401738 -2.6095285467821903 3.853184824378906 -2.670298814759378 3.9281578387400815 -2.6703283142766296 C 4.003151727277875 -2.670328320084095 4.063954560913352 -2.60954941515135 4.063984074446818 -2.534555532421037 C 4.063866118779388 -2.4596242874932353 4.003089176509812 -2.398943019276827 3.928157838740093 -2.3989431121188147 Z M 4.4632843423449655 -2.3987292967143197 C 4.388290459614651 -2.398758810247784 4.327511554681906 -2.4595616438832604 4.327511560489369 -2.534555532421037 C 4.327511560489369 -2.5705647130405267 4.341816151793298 -2.605099051370675 4.3672784875943105 -2.630561387171688 C 4.392740823395323 -2.6560237229727015 4.427275161725472 -2.6703283142766296 4.463284342344962 -2.6703283142766296 C 4.499293522964459 -2.6703283142766296 4.533827861294608 -2.6560237229727015 4.559290197095621 -2.630561387171688 C 4.584752532896634 -2.605099051370675 4.599057124200564 -2.5705647130405267 4.599057124200564 -2.534555532421035 C 4.598939207140291 -2.4596451507675887 4.538194811040933 -2.3989725000179583 4.46328434234497 -2.3989431121188147 Z" fill="#273946" transform="matrix(1,0,0,1,0,0)" fill-rule="nonzero"></path></g><g clip-path="url(#SvgjsClipPath1000cb3130f4-dc54-4447-b5bb-a8ca74d8b1c8)"><path d=" M 2.694549862494671 -1.9384916385345288 L 2.694549862494671 -1.0671938652092599 L 5.161819268836658 -1.0671938652092599 L 5.161819268836658 -1.9384916385345288 Z M 3.393084788986364 -1.3670699700163012 C 3.357075608366876 -1.3670699700163012 3.3225412700367256 -1.3813745613202293 3.2970789342357105 -1.4068368971212415 C 3.271616598434701 -1.4322992329222537 3.2573120071307695 -1.466833571252403 3.2573120071307695 -1.5028427518718948 C 3.2573120071307695 -1.5388519324913856 3.2716165984346977 -1.573386270821533 3.2970789342357105 -1.5988486066225471 C 3.3225412700367256 -1.6243109424235593 3.357075608366872 -1.6386155337274884 3.393084788986364 -1.6386155337274884 C 3.4290939696058538 -1.6386155337274884 3.463628307936004 -1.6243109424235593 3.489090643737017 -1.5988486066225471 C 3.5145529795380286 -1.573386270821535 3.5288575708419603 -1.5388519324913856 3.5288575708419603 -1.5028427518718948 C 3.528900134206837 -1.4668057947499693 3.514614335168219 -1.4322302448153492 3.489147384616159 -1.4067332151878307 C 3.463680434064095 -1.381236185560313 3.4291217712441373 -1.3669095833270737 3.393084788986362 -1.366909608462927 Z M 3.928157838740103 -1.3670699700163012 C 3.8921486581206146 -1.3670699700163012 3.857614319790464 -1.3813745613202293 3.8321519839894496 -1.4068368971212415 C 3.8066896481884376 -1.4322992329222537 3.792385056884508 -1.466833571252403 3.792385056884508 -1.5028427518718948 C 3.792385056884508 -1.5388519324913856 3.806689648188436 -1.573386270821533 3.8321519839894496 -1.5988486066225471 C 3.857614319790464 -1.6243109424235593 3.892148658120611 -1.6386155337274884 3.928157838740103 -1.6386155337274884 C 4.003151727277875 -1.6386155395349538 4.063954560913352 -1.5778366346022077 4.063984074446818 -1.5028427518718956 C 4.064012442717621 -1.4668008749817423 4.049714744147241 -1.4322254692084573 4.024239308421212 -1.4067299819785164 C 3.998763872695185 -1.3812344947485766 3.9641997267944493 -1.3669095972987075 3.9281578387400913 -1.366909608462927 Z M 4.4632843423449655 -1.3670699700163012 C 4.4272751617254755 -1.3670699700163012 4.392740823395323 -1.3813745613202293 4.3672784875943105 -1.4068368971212415 C 4.341816151793299 -1.4322992329222537 4.327511560489369 -1.466833571252403 4.327511560489369 -1.5028427518718948 C 4.327511560489369 -1.5388519324913856 4.341816151793298 -1.573386270821533 4.3672784875943105 -1.5988486066225471 C 4.392740823395323 -1.6243109424235593 4.427275161725472 -1.6386155337274884 4.463284342344962 -1.6386155337274884 C 4.499293522964459 -1.6386155337274884 4.533827861294608 -1.6243109424235593 4.559290197095621 -1.5988486066225471 C 4.584752532896634 -1.573386270821535 4.599057124200564 -1.5388519324913856 4.599057124200564 -1.5028427518718948 C 4.599099687565441 -1.4668057947499693 4.584813888526822 -1.4322302448153492 4.559346937974764 -1.4067332151878307 C 4.533879987422699 -1.381236185560313 4.49932132460274 -1.3669095833270737 4.4632843423449655 -1.366909608462927 Z" fill="#273946" transform="matrix(1,0,0,1,0,0)" fill-rule="nonzero"></path></g><g clip-path="url(#SvgjsClipPath1000cb3130f4-dc54-4447-b5bb-a8ca74d8b1c8)"><path d=" M 2.694549862494671 -0.9062443194741445 L 2.694549862494671 -0.0349465461488756 L 5.161819268836658 -0.0349465461488756 L 5.161819268836658 -0.9062443194741445 Z M 3.393084788986364 -0.3348761048070408 C 3.357075608366876 -0.3348761048070408 3.3225412700367256 -0.3491806961109689 3.2970789342357105 -0.3746430319119818 C 3.271616598434701 -0.4001053677129942 3.2573120071307695 -0.4346397060431424 3.2573120071307695 -0.47064888666263416 C 3.2573120071307695 -0.5066580672821259 3.2716165984346977 -0.5411924056122732 3.2970789342357105 -0.5666547414132874 C 3.3225412700367256 -0.5921170772142998 3.357075608366872 -0.6064216685182275 3.393084788986364 -0.6064216685182275 C 3.4290939696058538 -0.6064216685182275 3.463628307936004 -0.5921170772142998 3.489090643737017 -0.5666547414132874 C 3.5145529795380286 -0.5411924056122754 3.5288575708419603 -0.5066580672821259 3.5288575708419603 -0.47064888666263416 C 3.5288575708419603 -0.4346397060431424 3.5145529795380304 -0.4001053677129951 3.489090643737017 -0.3746430319119818 C 3.463628307936004 -0.3491806961109689 3.4290939696058556 -0.3348761048070408 3.393084788986364 -0.3348761048070408 Z M 3.928157838740103 -0.3348761048070408 C 3.8921486581206146 -0.3348761048070408 3.857614319790464 -0.3491806961109689 3.8321519839894496 -0.3746430319119818 C 3.8066896481884376 -0.4001053677129942 3.792385056884508 -0.4346397060431424 3.792385056884508 -0.47064888666263416 C 3.792385056884508 -0.5066580672821259 3.806689648188436 -0.5411924056122732 3.8321519839894496 -0.5666547414132874 C 3.857614319790464 -0.5921170772142998 3.892148658120611 -0.6064216685182275 3.928157838740103 -0.6064216685182275 C 4.003151727277875 -0.606421674325694 4.063954560913352 -0.545642769392948 4.063984074446818 -0.47064888666263593 C 4.063954560913346 -0.3956550039323137 4.003151727277869 -0.33487609899957027 3.9281578387400913 -0.3348761048070399 Z M 4.4632843423449655 -0.3348761048070408 C 4.4272751617254755 -0.3348761048070408 4.392740823395323 -0.3491806961109689 4.3672784875943105 -0.3746430319119818 C 4.341816151793299 -0.4001053677129942 4.327511560489369 -0.4346397060431424 4.327511560489369 -0.47064888666263416 C 4.327511560489369 -0.5066580672821259 4.341816151793298 -0.5411924056122732 4.3672784875943105 -0.5666547414132874 C 4.392740823395323 -0.5921170772142998 4.427275161725472 -0.6064216685182275 4.463284342344962 -0.6064216685182275 C 4.499293522964459 -0.6064216685182275 4.533827861294608 -0.5921170772142998 4.559290197095621 -0.5666547414132874 C 4.584752532896634 -0.5411924056122754 4.599057124200564 -0.5066580672821259 4.599057124200564 -0.47064888666263416 C 4.599057124200564 -0.4346397060431424 4.584752532896638 -0.4001053677129951 4.559290197095621 -0.3746430319119818 C 4.533827861294608 -0.3491806961109689 4.499293522964459 -0.3348761048070408 4.46328434234497 -0.3348761048070408 Z" fill="#273946" transform="matrix(1,0,0,1,0,0)" fill-rule="nonzero"></path></g><g clip-path="url(#SvgjsClipPath1000cb3130f4-dc54-4447-b5bb-a8ca74d8b1c8)"><path d=" M 2.5342417629730454 -2.965981564844856 C 2.499282944337786 -2.9688680728055648 2.463914312843907 -2.9703291447362945 2.428135868491409 -2.970364780637043 C 1.9943233945897263 -2.9705382354206775 1.5892095457731092 -2.753594652785448 1.348902614292808 -2.392421742281655 C 1.3095059251330123 -2.398488174710872 1.269720746238722 -2.4016859955559915 1.2298608878391117 -2.4019899816328993 C 0.8090303832614054 -2.402010499560745 0.4575336484235004 -2.081311441450133 0.4190728739864904 -1.6622421359244064 C 0.02506764711767978 -1.5983958307340493 -0.26452873880336575 -1.2582960807084245 -0.26476224344603505 -0.8591514766336803 C -0.2647764269093609 -0.6431444052815509 -0.1789669162186816 -0.4359819125860023 -0.026216826335832305 -0.2832518725935067 C 0.12653326354701705 -0.13052183260101025 0.33370701850474693 -0.044739516465796214 0.549714086134075 -0.04478205475573649 L 2.5342417629730454 -0.04269735456189183 Z" fill="#273946" transform="matrix(1,0,0,1,0,0)" fill-rule="nonzero"></path></g></g></g><defs><clipPath id="SvgjsClipPath1002"><path d=" M -0.26476224344603505 -2.970364780637043 h 5.426581512282695 v 2.935364780637043 h -5.426581512282695 Z"></path></clipPath><clipPath id="SvgjsClipPath1000cb3130f4-dc54-4447-b5bb-a8ca74d8b1c8"><path d=" M -0.26476224344603505 -2.970364780637043 L 5.16181926883666 -2.970364780637043 L 5.16181926883666 -0.03500000000000014 L -0.26476224344603505 -0.03500000000000014 Z"></path></clipPath></defs></svg>